<svg id="Layer_1" data-name="Layer 1" xmlns="http://www.w3.org/2000/svg" viewBox="0 0 599.81 136.94">
  <g>
    <g>
      <g>
        <path d="M149.26-180.3h-8.47v-18.56H124.27v18.56H115.8v-43.32h8.47v17.56h16.52v-17.56h8.47Z" transform="translate(35.69 266.04)" style="fill: #fff"/>
        <path d="M180.38-189.22H165.53l-2.83,8.92h-9L169-223.62h7.85l15.39,43.32h-9Zm-12.57-7.23h10.28l-5.16-16.22Z" transform="translate(35.69 266.04)" style="fill: #fff"/>
        <path d="M204.55-195.56v15.26h-8.47v-43.32h16a17.79,17.79,0,0,1,8.15,1.79,12.73,12.73,0,0,1,5.4,5.07,14.65,14.65,0,0,1,1.9,7.48q0,6.38-4.14,10.05T212-195.56Zm0-7.23h7.57a7.22,7.22,0,0,0,5.13-1.67,6.24,6.24,0,0,0,1.76-4.76,7.34,7.34,0,0,0-1.78-5.14,6.47,6.47,0,0,0-4.91-2h-7.77Z" transform="translate(35.69 266.04)" style="fill: #fff"/>
        <path d="M241.85-195.56v15.26h-8.47v-43.32h16a17.76,17.76,0,0,1,8.15,1.79,12.75,12.75,0,0,1,5.41,5.07,14.74,14.74,0,0,1,1.89,7.48q0,6.38-4.14,10.05t-11.45,3.67Zm0-7.23h7.57a7.22,7.22,0,0,0,5.13-1.67,6.24,6.24,0,0,0,1.76-4.76,7.34,7.34,0,0,0-1.78-5.14,6.46,6.46,0,0,0-4.91-2h-7.77Z" transform="translate(35.69 266.04)" style="fill: #fff"/>
        <path d="M284.86-204.1l8.56-19.52h9.26L289.18-196v15.71h-8.61V-196l-13.5-27.61h9.29Z" transform="translate(35.69 266.04)" style="fill: #fff"/>
        <path d="M353.11-194.73q-.48,7-4.9,11c-2.94,2.68-6.83,4-11.64,4q-7.92,0-12.44-5.61t-4.54-15.4v-2.65a27.19,27.19,0,0,1,2.09-11,16.33,16.33,0,0,1,6-7.31,16.1,16.1,0,0,1,9-2.54q7.11,0,11.46,4t5,11.28H344.7c-.21-2.8-.95-4.82-2.22-6.08s-3.2-1.89-5.8-1.89a7.05,7.05,0,0,0-6.34,3.2q-2.1,3.19-2.16,9.92v3.27q0,7,2,10.26a6.94,6.94,0,0,0,6.37,3.25q3.92,0,5.85-1.89t2.22-5.85Z" transform="translate(35.69 266.04)" style="fill: #fff"/>
        <path d="M392.45-201a27.36,27.36,0,0,1-2.15,11.22,16.86,16.86,0,0,1-6.14,7.44A16.38,16.38,0,0,1,375-179.7a16.48,16.48,0,0,1-9.12-2.59,17,17,0,0,1-6.22-7.39,26.75,26.75,0,0,1-2.23-11.06v-2.14a27.19,27.19,0,0,1,2.19-11.26,17,17,0,0,1,6.19-7.47,16.37,16.37,0,0,1,9.13-2.6,16.42,16.42,0,0,1,9.14,2.6,17,17,0,0,1,6.18,7.47,27.11,27.11,0,0,1,2.19,11.23Zm-8.59-2q0-6.81-2.31-10.35a7.45,7.45,0,0,0-6.61-3.54,7.43,7.43,0,0,0-6.58,3.49q-2.31,3.5-2.34,10.25V-201q0,6.64,2.31,10.3A7.44,7.44,0,0,0,375-187a7.36,7.36,0,0,0,6.55-3.53q2.28-3.52,2.31-10.28Z" transform="translate(35.69 266.04)" style="fill: #fff"/>
        <path d="M398.6-180.3v-43.32h12.65A18.39,18.39,0,0,1,421-221a17.45,17.45,0,0,1,6.68,7.32,23.52,23.52,0,0,1,2.4,10.78v2a23.63,23.63,0,0,1-2.35,10.74,17.37,17.37,0,0,1-6.66,7.29,18.54,18.54,0,0,1-9.68,2.62Zm8.48-36.09v28.92h4.09a9,9,0,0,0,7.6-3.42q2.63-3.42,2.68-9.79V-203q0-6.6-2.6-10a9,9,0,0,0-7.6-3.41Z" transform="translate(35.69 266.04)" style="fill: #fff"/>
        <path d="M436.19-180.3v-43.32h12.65a18.42,18.42,0,0,1,9.7,2.58,17.51,17.51,0,0,1,6.68,7.32,23.52,23.52,0,0,1,2.4,10.78v2a23.64,23.64,0,0,1-2.36,10.74,17.35,17.35,0,0,1-6.65,7.29,18.55,18.55,0,0,1-9.69,2.62Zm8.47-36.09v28.92h4.09a9,9,0,0,0,7.6-3.42q2.63-3.42,2.68-9.79V-203q0-6.6-2.59-10a9,9,0,0,0-7.6-3.41Z" transform="translate(35.69 266.04)" style="fill: #fff"/>
        <path d="M482.78-180.3h-8.47v-43.32h8.47Z" transform="translate(35.69 266.04)" style="fill: #fff"/>
        <path d="M524.07-180.3h-8.48L499.1-208.8v28.5h-8.47v-43.32h8.47l16.52,28.56v-28.56h8.45Z" transform="translate(35.69 266.04)" style="fill: #fff"/>
        <path d="M564-185.77a14.67,14.67,0,0,1-6.46,4.47,25.68,25.68,0,0,1-9.26,1.6,17.63,17.63,0,0,1-9.37-2.46,16.07,16.07,0,0,1-6.21-7.12,26.28,26.28,0,0,1-2.24-11v-3a28,28,0,0,1,2.07-11.23,16,16,0,0,1,6-7.26,16.62,16.62,0,0,1,9.16-2.51q7.32,0,11.44,3.67t4.88,10.7h-8.24a8.84,8.84,0,0,0-2.5-5.45,7.7,7.7,0,0,0-5.32-1.72,7.39,7.39,0,0,0-6.58,3.42q-2.26,3.42-2.29,10.17v2.77q0,6.81,2.46,10.3a8.24,8.24,0,0,0,7.2,3.48q4.77,0,6.8-2.15v-7.46h-7.71v-6.58H564Z" transform="translate(35.69 266.04)" style="fill: #fff"/>
      </g>
      <g>
        <path d="M93.34-242.24v80.56a23.81,23.81,0,0,1-23.82,23.8H-11.89a23.81,23.81,0,0,1-23.8-23.8v-80.56A23.81,23.81,0,0,1-11.89-266H69.52A23.81,23.81,0,0,1,93.34-242.24Z" transform="translate(35.69 266.04)" style="fill: #fff"/>
        <polygon points="59.33 0 59.33 91.04 52.77 91.04 52.77 68.26 22.63 68.26 22.63 91.04 16.1 91.04 16.1 37.78 22.63 37.78 22.63 61.7 52.77 61.7 52.77 0 59.33 0" style="fill: #8f34df"/>
        <g>
          <path d="M58-178.22a21.42,21.42,0,0,1-9.22-2.07,21.41,21.41,0,0,1-4.14-2.6,21.6,21.6,0,0,1-5.4-6.5v11c.35.3.67.64,1,.92A27.62,27.62,0,0,0,45.74-174,28.38,28.38,0,0,0,58-171.23a28.23,28.23,0,0,0,19.73-8l-4.85-5A21.32,21.32,0,0,1,58-178.22Z" transform="translate(35.69 266.04)" style="fill: #11b8d7"/>
          <path d="M77.71-220l-4.86,5A21.32,21.32,0,0,0,58-221a21.55,21.55,0,0,0-9.25,2.08,20.14,20.14,0,0,0-4.07,2.59,21.29,21.29,0,0,0-6.22,8c-.15.34-.29.68-.42,1a23,23,0,0,0-1.53,4.5,18.16,18.16,0,0,0-.28,2.52c0,.75,0,1.51,0,2.3v16.56s0,0,0-.06v43.67H29.58v-61.74c0-.62,0-1.21,0-1.79a28.21,28.21,0,0,1,2.44-9.8,28.43,28.43,0,0,1,8.19-10.6,27.83,27.83,0,0,1,5.47-3.44A28.54,28.54,0,0,1,58-228,28.31,28.31,0,0,1,77.71-220Z" transform="translate(35.69 266.04)" style="fill: #11b8d7"/>
        </g>
      </g>
    </g>
    <g>
      <g>
        <path d="M532.65-158.88a2.52,2.52,0,0,1,.63-1.77,2.2,2.2,0,0,1,1.71-.69,2.21,2.21,0,0,1,1.7.69,2.52,2.52,0,0,1,.63,1.77,2.49,2.49,0,0,1-.64,1.78,2.21,2.21,0,0,1-1.69.7,2.23,2.23,0,0,1-1.7-.7A2.54,2.54,0,0,1,532.65-158.88Zm4.43,22.48H532.9v-17.86h4.18Z" transform="translate(35.69 266.04)" style="fill: #fff;stroke: #fff;stroke-miterlimit: 10"/>
        <path d="M556.57-156.42h-6.43v20h-4.32v-20h-6.34v-4h17.09Z" transform="translate(35.69 266.04)" style="fill: #fff;stroke: #fff;stroke-miterlimit: 10"/>
      </g>
      <path d="M543.39-129.22a20.63,20.63,0,0,1-20.61-20.6,20.63,20.63,0,0,1,20.61-20.61A20.62,20.62,0,0,1,564-149.82,20.62,20.62,0,0,1,543.39-129.22Zm0-40.12a19.54,19.54,0,0,0-19.52,19.52,19.55,19.55,0,0,0,19.52,19.52,19.55,19.55,0,0,0,19.52-19.52A19.54,19.54,0,0,0,543.39-169.34Z" transform="translate(35.69 266.04)" style="fill: #fff;stroke: #fff;stroke-miterlimit: 10;stroke-width: 0.25px"/>
    </g>
  </g>
</svg>
